<?xml version="1.0" encoding="UTF-8" standalone="no"?>
<svg
   xmlns:dc="http://purl.org/dc/elements/1.1/"
   xmlns:cc="http://creativecommons.org/ns#"
   xmlns:rdf="http://www.w3.org/1999/02/22-rdf-syntax-ns#"
   xmlns:svg="http://www.w3.org/2000/svg"
   xmlns="http://www.w3.org/2000/svg"
   version="1.1"
   id="svg4244"
   viewBox="0 0 32 32.000001"
   height="32"
   width="32">
  <defs
     id="defs4246" />
  <metadata
     id="metadata4249">
    <rdf:RDF>
      <cc:Work
         rdf:about="">
        <dc:format>image/svg+xml</dc:format>
        <dc:type
           rdf:resource="http://purl.org/dc/dcmitype/StillImage" />
        <dc:title />
      </cc:Work>
    </rdf:RDF>
  </metadata>
  <g
     transform="translate(0,-1020.3622)"
     id="layer1">
    <g
       transform="translate(-4.2590071,-3.0333347)"
       id="g4783">
      <g
         id="g8370">
        <path
           style="fill:#8a6845;fill-opacity:1;stroke:none;stroke-width:2;stroke-linecap:round;stroke-linejoin:round;stroke-opacity:1"
           d="m 10.258958,1038.8955 c 1.385,0 2.5,1.115 2.5,2.5 l 0,9.6666 c 0,1.385 -1.115,2.5 -2.5,2.5 -1.3849998,0 -2.4999997,-1.115 -2.4999997,-2.5 l 0,-9.6666 c 0,-1.385 1.1149999,-2.5 2.4999997,-2.5 z"
           id="rect6388" />
        <path
           style="color:#000000;font-style:normal;font-variant:normal;font-weight:normal;font-stretch:normal;font-size:medium;line-height:normal;font-family:sans-serif;text-indent:0;text-align:start;text-decoration:none;text-decoration-line:none;text-decoration-style:solid;text-decoration-color:#000000;letter-spacing:normal;word-spacing:normal;text-transform:none;direction:ltr;block-progression:tb;writing-mode:lr-tb;baseline-shift:baseline;text-anchor:start;white-space:normal;clip-rule:nonzero;display:inline;overflow:visible;visibility:visible;opacity:1;isolation:auto;mix-blend-mode:normal;color-interpolation:sRGB;color-interpolation-filters:linearRGB;solid-color:#000000;solid-opacity:1;fill:#745539;fill-opacity:1;fill-rule:nonzero;stroke:none;stroke-width:1;stroke-linecap:round;stroke-linejoin:round;stroke-miterlimit:4;stroke-dasharray:none;stroke-dashoffset:0;stroke-opacity:1;color-rendering:auto;image-rendering:auto;shape-rendering:auto;text-rendering:auto;enable-background:accumulate"
           d="m 10.259766,1038.3945 c -1.6533516,0 -3.0000004,1.3467 -3.0000004,3 a 0.50005,0.50005 0 1 0 1,0 c 0,-1.1166 0.8833516,-2 2.0000004,-2 1.116648,0 2,0.8834 2,2 a 0.50005,0.50005 0 1 0 1,0 c 0,-1.6533 -1.346649,-3 -3,-3 z"
           id="rect6390" />
        <path
           style="fill:#8a6845;fill-opacity:1;stroke:none;stroke-width:2;stroke-linecap:round;stroke-linejoin:round;stroke-opacity:1"
           d="m 30.259058,1038.8955 c 1.385,0 2.5,1.115 2.5,2.5 l 0,8.6666 c 0,1.385 -1.115,2.5 -2.5,2.5 -1.385,0 -2.5,-1.115 -2.5,-2.5 l 0,-8.6666 c 0,-1.385 1.115,-2.5 2.5,-2.5 z"
           id="rect6399" />
        <path
           style="color:#000000;font-style:normal;font-variant:normal;font-weight:normal;font-stretch:normal;font-size:medium;line-height:normal;font-family:sans-serif;text-indent:0;text-align:start;text-decoration:none;text-decoration-line:none;text-decoration-style:solid;text-decoration-color:#000000;letter-spacing:normal;word-spacing:normal;text-transform:none;direction:ltr;block-progression:tb;writing-mode:lr-tb;baseline-shift:baseline;text-anchor:start;white-space:normal;clip-rule:nonzero;display:inline;overflow:visible;visibility:visible;opacity:1;isolation:auto;mix-blend-mode:normal;color-interpolation:sRGB;color-interpolation-filters:linearRGB;solid-color:#000000;solid-opacity:1;fill:#745539;fill-opacity:1;fill-rule:nonzero;stroke:none;stroke-width:1;stroke-linecap:round;stroke-linejoin:round;stroke-miterlimit:4;stroke-dasharray:none;stroke-dashoffset:0;stroke-opacity:1;color-rendering:auto;image-rendering:auto;shape-rendering:auto;text-rendering:auto;enable-background:accumulate"
           d="m 30.259766,1038.3945 c -1.653352,0 -3,1.3467 -3,3 a 0.50005,0.50005 0 1 0 1,0 c 0,-1.1166 0.883351,-2 2,-2 1.116648,0 2,0.8834 2,2 a 0.50005,0.50005 0 1 0 1,0 c 0,-1.6533 -1.346649,-3 -3,-3 z"
           id="path6401" />
        <path
           style="fill:#c7c6ce;fill-opacity:1;stroke:none;stroke-width:2;stroke-linecap:round;stroke-linejoin:round;stroke-opacity:1"
           d="m 5.2590078,1045.8955 10.6430752,-4 4.356925,0 4.356926,0 10.643074,4 0,9.5 -30.0000002,0 z"
           id="rect6287" />
        <path
           style="color:#000000;font-style:normal;font-variant:normal;font-weight:normal;font-stretch:normal;font-size:medium;line-height:normal;font-family:sans-serif;text-indent:0;text-align:start;text-decoration:none;text-decoration-line:none;text-decoration-style:solid;text-decoration-color:#000000;letter-spacing:normal;word-spacing:normal;text-transform:none;direction:ltr;block-progression:tb;writing-mode:lr-tb;baseline-shift:baseline;text-anchor:start;white-space:normal;clip-rule:nonzero;display:inline;overflow:visible;visibility:visible;opacity:1;isolation:auto;mix-blend-mode:normal;color-interpolation:sRGB;color-interpolation-filters:linearRGB;solid-color:#000000;solid-opacity:1;fill:#57565c;fill-opacity:1;fill-rule:nonzero;stroke:none;stroke-width:0.99999994;stroke-linecap:round;stroke-linejoin:round;stroke-miterlimit:4;stroke-dasharray:none;stroke-dashoffset:0;stroke-opacity:1;color-rendering:auto;image-rendering:auto;shape-rendering:auto;text-rendering:auto;enable-background:accumulate"
           d="m 15.726562,1041.3945 a 0.50004997,0.50004997 0 0 0 -0.171874,0.031 l -10.960938,4 a 0.50015908,0.50015908 0 1 0 0.34375,0.9394 l 10.876953,-3.9707 4.445313,0 4.443359,0 10.876953,3.9707 a 0.50015908,0.50015908 0 1 0 0.34375,-0.9394 l -10.960937,-4 a 0.50004997,0.50004997 0 0 0 -0.169922,-0.031 l -4.533203,0 -4.533204,0 z"
           id="path6386" />
        <path
           style="color:#000000;font-style:normal;font-variant:normal;font-weight:normal;font-stretch:normal;font-size:medium;line-height:normal;font-family:sans-serif;text-indent:0;text-align:start;text-decoration:none;text-decoration-line:none;text-decoration-style:solid;text-decoration-color:#000000;letter-spacing:normal;word-spacing:normal;text-transform:none;direction:ltr;block-progression:tb;writing-mode:lr-tb;baseline-shift:baseline;text-anchor:start;white-space:normal;clip-rule:nonzero;display:inline;overflow:visible;visibility:visible;opacity:1;isolation:auto;mix-blend-mode:normal;color-interpolation:sRGB;color-interpolation-filters:linearRGB;solid-color:#000000;solid-opacity:1;fill:#c7c6ce;fill-opacity:1;fill-rule:evenodd;stroke:none;stroke-width:1px;stroke-linecap:round;stroke-linejoin:round;stroke-miterlimit:4;stroke-dasharray:none;stroke-dashoffset:0;stroke-opacity:1;color-rendering:auto;image-rendering:auto;shape-rendering:auto;text-rendering:auto;enable-background:accumulate"
           d="m 20.251953,1023.3965 a 0.50005,0.50005 0 0 0 -0.492187,0.5058 l 0,4 a 0.50005,0.50005 0 1 0 1,0 l 0,-4 a 0.50005,0.50005 0 0 0 -0.507813,-0.5058 z"
           id="path6376" />
        <path
           style="color:#000000;font-style:normal;font-variant:normal;font-weight:normal;font-stretch:normal;font-size:medium;line-height:normal;font-family:sans-serif;text-indent:0;text-align:start;text-decoration:none;text-decoration-line:none;text-decoration-style:solid;text-decoration-color:#000000;letter-spacing:normal;word-spacing:normal;text-transform:none;direction:ltr;block-progression:tb;writing-mode:lr-tb;baseline-shift:baseline;text-anchor:start;white-space:normal;clip-rule:nonzero;display:inline;overflow:visible;visibility:visible;opacity:1;isolation:auto;mix-blend-mode:normal;color-interpolation:sRGB;color-interpolation-filters:linearRGB;solid-color:#000000;solid-opacity:1;fill:#c7c6ce;fill-opacity:1;fill-rule:evenodd;stroke:none;stroke-width:1px;stroke-linecap:round;stroke-linejoin:round;stroke-miterlimit:4;stroke-dasharray:none;stroke-dashoffset:0;stroke-opacity:1;color-rendering:auto;image-rendering:auto;shape-rendering:auto;text-rendering:auto;enable-background:accumulate"
           d="m 19.208984,1024.3965 a 0.50064429,0.50064429 0 1 0 0.05078,1 l 2,0 a 0.50005,0.50005 0 1 0 0,-1 l -2,0 a 0.50005,0.50005 0 0 0 -0.05078,0 z"
           id="path6378" />
        <path
           style="fill:#8a6845;fill-opacity:1;stroke:none;stroke-width:2;stroke-linecap:round;stroke-linejoin:round;stroke-opacity:1"
           d="m 20.159013,1027.3956 c 2.160602,0 3.900004,1.7394 3.900004,3.9 l 0,18.2 c 0,2.1606 -1.739402,3.9 -3.900004,3.9 -2.160603,0 -3.900005,-1.7394 -3.900005,-3.9 l 0,-18.2 c 0,-2.1606 1.739402,-3.9 3.900005,-3.9 z"
           id="rect6294" />
        <path
           style="fill:#b48966;fill-opacity:1;stroke:none;stroke-width:2;stroke-linecap:round;stroke-linejoin:round;stroke-opacity:1"
           d="m 20.159013,1027.3956 c -2.160603,0 -3.900005,1.7394 -3.900005,3.9 l 0,0.7999 c 0,-0.4321 0.347881,-0.78 0.780001,-0.78 0.432121,0 0.780001,0.3479 0.780001,0.78 0,-0.4321 0.347881,-0.78 0.780001,-0.78 0.43212,0 0.780001,0.3479 0.780001,0.78 0,-0.4321 0.34788,-0.78 0.780001,-0.78 0.43212,0 0.780001,0.3479 0.780001,0.78 0,-0.4321 0.34788,-0.78 0.780001,-0.78 0.43212,0 0.78,0.3479 0.78,0.78 0,-0.4321 0.347881,-0.78 0.780001,-0.78 0.432121,0 0.780001,0.3479 0.780001,0.78 l 0,-0.7999 c 0,-2.1606 -1.739402,-3.9 -3.900004,-3.9 z"
           id="rect6348" />
        <path
           style="fill:#745539;fill-opacity:1;stroke:none;stroke-width:2;stroke-linecap:round;stroke-linejoin:round;stroke-opacity:1"
           d="m 20.159013,1027.3956 c -1.296362,0 -2.340003,1.7394 -2.340003,3.9 l 0,0.7999 c 0,-0.4321 0.347881,-0.78 0.780001,-0.78 0.43212,0 0.780001,0.3479 0.780001,0.78 0,-0.4321 0.34788,-0.78 0.780001,-0.78 0.43212,0 0.780001,0.3479 0.780001,0.78 0,-0.4321 0.34788,-0.78 0.780001,-0.78 0.43212,0 0.78,0.3479 0.78,0.78 l 0,-0.7999 c 0,-2.1606 -1.043641,-3.9 -2.340002,-3.9 z"
           id="path6351" />
        <path
           style="fill:#b48966;fill-opacity:1;stroke:none;stroke-width:2;stroke-linecap:round;stroke-linejoin:round;stroke-opacity:1"
           d="m 20.159013,1027.3956 c -0.432121,0 -0.780001,1.7394 -0.780001,3.9 l 0,0.7999 c 0,-0.4321 0.34788,-0.78 0.780001,-0.78 0.43212,0 0.780001,0.3479 0.780001,0.78 l 0,-0.7999 c 0,-2.1606 -0.347881,-3.9 -0.780001,-3.9 z"
           id="path6353" />
        <path
           style="fill:#8a6845;fill-opacity:1;stroke:none;stroke-width:2;stroke-linecap:round;stroke-linejoin:round;stroke-opacity:1"
           d="m 15.259007,1044.3955 10,0 0,11 -10,0 z"
           id="rect6373" />
        <path
           style="fill:#c1c0c8;fill-opacity:1;stroke:none;stroke-width:1;stroke-linecap:round;stroke-linejoin:round;stroke-opacity:1"
           d="m 20.259008,1032.3955 c 0.554,0 1,0.446 1,1 l 0,3 -2,0 0,-3 c 0,-0.554 0.446,-1 1,-1 z"
           id="rect6380" />
        <path
           style="fill:#8a6845;fill-opacity:1;stroke:none;stroke-width:2;stroke-linecap:round;stroke-linejoin:round;stroke-opacity:1"
           d="m 20.259007,1035.3955 c 2.77,0 5,2.23 5,5 l 0,9.5 c 0,2.77 -2.23,5 -5,5 -2.77,0 -5,-2.23 -5,-5 l 0,-9.5 c 0,-2.77 2.23,-5 5,-5 z"
           id="rect6289" />
        <path
           style="color:#000000;font-style:normal;font-variant:normal;font-weight:normal;font-stretch:normal;font-size:medium;line-height:normal;font-family:sans-serif;text-indent:0;text-align:start;text-decoration:none;text-decoration-line:none;text-decoration-style:solid;text-decoration-color:#000000;letter-spacing:normal;word-spacing:normal;text-transform:none;direction:ltr;block-progression:tb;writing-mode:lr-tb;baseline-shift:baseline;text-anchor:start;white-space:normal;clip-rule:nonzero;display:inline;overflow:visible;visibility:visible;opacity:1;isolation:auto;mix-blend-mode:normal;color-interpolation:sRGB;color-interpolation-filters:linearRGB;solid-color:#000000;solid-opacity:1;fill:#745539;fill-opacity:1;fill-rule:nonzero;stroke:none;stroke-width:1;stroke-linecap:round;stroke-linejoin:round;stroke-miterlimit:4;stroke-dasharray:none;stroke-dashoffset:0;stroke-opacity:1;color-rendering:auto;image-rendering:auto;shape-rendering:auto;text-rendering:auto;enable-background:accumulate"
           d="m 20.259766,1035.3945 c -3.038352,0 -5.5,2.4617 -5.5,5.5 a 0.50005,0.50005 0 1 0 1,0 c 0,-2.5016 1.998351,-4.5 4.5,-4.5 2.501648,0 4.5,1.9984 4.5,4.5 a 0.50005,0.50005 0 1 0 1,0 c 0,-3.0383 -2.461649,-5.5 -5.5,-5.5 z"
           id="rect6291" />
        <path
           style="fill:#8b8891;fill-opacity:1;stroke:none;stroke-width:1;stroke-linecap:round;stroke-linejoin:round;stroke-opacity:1"
           d="m 10.259007,1046.7955 c 1.108,0 2,0.892 2,2 l 0,0.8 c 0,1.108 -0.892,2 -2,2 -1.1079995,0 -1.9999995,-0.892 -1.9999995,-2 l 0,-0.8 c 0,-1.108 0.892,-2 1.9999995,-2 z"
           id="rect6409" />
        <path
           style="fill:#8b8891;fill-opacity:1;stroke:none;stroke-width:1;stroke-linecap:round;stroke-linejoin:round;stroke-opacity:1"
           d="m 8.2590214,1048.7955 3.9999726,0 c 7e-6,0 1.3e-5,0 1.3e-5,0 l 0,3.6 c 0,0 -6e-6,0 -1.3e-5,0 l -3.9999726,0 c -7.7e-6,0 -1.39e-5,0 -1.39e-5,0 l 0,-3.6 c 0,0 6.2e-6,0 1.39e-5,0 z"
           id="rect6411" />
        <path
           style="fill:#8b8891;fill-opacity:1;stroke:none;stroke-width:1;stroke-linecap:round;stroke-linejoin:round;stroke-opacity:1"
           d="m 30.259008,1046.7955 c 1.108,0 2,0.892 2,2 l 0,0.8 c 0,1.108 -0.892,2 -2,2 -1.108,0 -2,-0.892 -2,-2 l 0,-0.8 c 0,-1.108 0.892,-2 2,-2 z"
           id="rect6413" />
        <path
           style="fill:#8b8891;fill-opacity:1;stroke:none;stroke-width:1;stroke-linecap:round;stroke-linejoin:round;stroke-opacity:1"
           d="m 28.259022,1048.7955 3.999973,0 c 7e-6,0 1.3e-5,0 1.3e-5,0 l 0,3.6 c 0,0 -6e-6,0 -1.3e-5,0 l -3.999973,0 c -7e-6,0 -1.4e-5,0 -1.4e-5,0 l 0,-3.6 c 0,0 7e-6,0 1.4e-5,0 z"
           id="rect6415" />
        <path
           style="fill:#caac92;fill-opacity:1;stroke:none;stroke-width:1;stroke-linecap:round;stroke-linejoin:round;stroke-opacity:1"
           d="m 17.259026,1043.3955 5.999965,0 c 10e-6,0 1.7e-5,0 1.7e-5,0 l 0,12 c 0,0 -7e-6,0 -1.7e-5,0 l -5.999965,0 c -10e-6,0 -1.8e-5,0 -1.8e-5,0 l 0,-12 c 0,0 8e-6,0 1.8e-5,0 z"
           id="rect6460" />
        <path
           style="fill:#3c3b41;fill-opacity:1;stroke:none;stroke-width:1;stroke-linecap:round;stroke-linejoin:round;stroke-opacity:1"
           d="m 20.259008,1047.3955 c 1.108,0 2,0.892 2,2 l 0,4 c 0,1.108 -0.892,2 -2,2 -1.108,0 -2,-0.892 -2,-2 l 0,-4 c 0,-1.108 0.892,-2 2,-2 z"
           id="rect6462" />
        <path
           style="fill:#3c3b41;fill-opacity:1;stroke:none;stroke-width:1;stroke-linecap:round;stroke-linejoin:round;stroke-opacity:1"
           d="m 18.259008,1050.3955 4,0 0,5 -4,0 z"
           id="rect6464" />
        <path
           style="color:#000000;font-style:normal;font-variant:normal;font-weight:normal;font-stretch:normal;font-size:medium;line-height:normal;font-family:sans-serif;text-indent:0;text-align:start;text-decoration:none;text-decoration-line:none;text-decoration-style:solid;text-decoration-color:#000000;letter-spacing:normal;word-spacing:normal;text-transform:none;direction:ltr;block-progression:tb;writing-mode:lr-tb;baseline-shift:baseline;text-anchor:start;white-space:normal;clip-rule:nonzero;display:inline;overflow:visible;visibility:visible;opacity:1;isolation:auto;mix-blend-mode:normal;color-interpolation:sRGB;color-interpolation-filters:linearRGB;solid-color:#000000;solid-opacity:1;fill:#57565c;fill-opacity:1;fill-rule:evenodd;stroke:none;stroke-width:1px;stroke-linecap:butt;stroke-linejoin:miter;stroke-miterlimit:4;stroke-dasharray:none;stroke-dashoffset:0;stroke-opacity:1;color-rendering:auto;image-rendering:auto;shape-rendering:auto;text-rendering:auto;enable-background:accumulate"
           d="m 7.2597656,1051.8945 0,1 6.0000004,0 0,-1 -6.0000004,0 z"
           id="path6466" />
        <path
           style="color:#000000;font-style:normal;font-variant:normal;font-weight:normal;font-stretch:normal;font-size:medium;line-height:normal;font-family:sans-serif;text-indent:0;text-align:start;text-decoration:none;text-decoration-line:none;text-decoration-style:solid;text-decoration-color:#000000;letter-spacing:normal;word-spacing:normal;text-transform:none;direction:ltr;block-progression:tb;writing-mode:lr-tb;baseline-shift:baseline;text-anchor:start;white-space:normal;clip-rule:nonzero;display:inline;overflow:visible;visibility:visible;opacity:1;isolation:auto;mix-blend-mode:normal;color-interpolation:sRGB;color-interpolation-filters:linearRGB;solid-color:#000000;solid-opacity:1;fill:#57565c;fill-opacity:1;fill-rule:evenodd;stroke:none;stroke-width:1px;stroke-linecap:butt;stroke-linejoin:miter;stroke-miterlimit:4;stroke-dasharray:none;stroke-dashoffset:0;stroke-opacity:1;color-rendering:auto;image-rendering:auto;shape-rendering:auto;text-rendering:auto;enable-background:accumulate"
           d="m 27.259766,1051.8945 0,1 6,0 0,-1 -6,0 z"
           id="path6468" />
      </g>
    </g>
  </g>
</svg>
