<?xml version="1.0" encoding="iso-8859-1"?>
<!-- Generator: Adobe Illustrator 19.0.0, SVG Export Plug-In . SVG Version: 6.00 Build 0)  -->
<svg version="1.1" id="Capa_1" xmlns="http://www.w3.org/2000/svg" xmlns:xlink="http://www.w3.org/1999/xlink" x="0px" y="0px"
	 viewBox="0 0 512 512" style="enable-background:new 0 0 512 512;" xml:space="preserve">
<path style="fill:#E3E3E3;" d="M466.159,334.693c-3.168,0-6.385-0.757-9.373-2.351l-70.793-36.859l-42.335-22.041v-35.87H226.615
	v37.494v42.195v2.351l-113.606,55.314c-2.869,1.434-5.907,2.102-8.895,2.102c-0.01,0-0.01,0-0.02,0v80.187h362.086v-99.689v-22.833
	C466.169,334.693,466.169,334.693,466.159,334.693z"/>
<path style="fill:#4DBBEB;" d="M426.335,374.537v39.844H386.49v-39.844c0-11.007,8.915-19.922,19.922-19.922
	c5.499,0,10.479,2.231,14.085,5.837C424.103,364.058,426.335,369.038,426.335,374.537z"/>
<polygon style="fill:#FD6244;" points="363.58,175.315 343.658,155.393 293.893,64.573 226.117,188.265 219.144,195.237 
	343.658,195.237 "/>
<path style="fill:#57555C;" d="M224.125,459.206H104.591c-11.007,0-19.922,8.915-19.922,19.922v22.91h416.374v-22.91
	c0-11.007-8.915-19.922-19.922-19.922H303.813H224.125z"/>
<path style="fill:#FFFFFF;" d="M279.907,342.726c-4.891-2.139-10.281-3.332-15.938-3.332c-21.9,0-39.844,17.748-39.844,39.844
	c0,14.721,0,62.675,0,79.968H256c0-17.292,0-65.246,0-79.968C256,362.851,265.873,348.864,279.907,342.726z"/>
<path style="fill:#57555C;" d="M279.907,342.726C265.873,348.864,256,362.852,256,379.239c0,14.721,0,62.675,0,79.968h47.813
	c0-16.004,0-66.056,0-79.968C303.813,362.835,293.932,348.859,279.907,342.726z"/>
<path style="fill:#4DBBEB;" d="M141.447,374.537v39.844h-39.844v-39.844c0-11.007,8.915-19.922,19.922-19.922
	c5.499,0,10.479,2.231,14.085,5.837C139.216,364.058,141.447,369.038,141.447,374.537z"/>
<g>
	<polygon style="fill:#FD6244;" points="117.541,265.34 117.541,309.772 184.28,277.277 184.28,274.926 184.28,232.731 	"/>
	<path style="fill:#FD6244;" d="M475.572,297.199l-64.179-33.541v45.05l45.393,23.634c2.988,1.594,6.206,2.351,9.373,2.351
		c0.01,0,0.01,0,0.02,0c7.102-0.01,13.975-3.825,17.571-10.529C488.93,314.462,485.274,302.389,475.572,297.199z"/>
</g>
<path d="M224.125,165.354c5.499,0,9.961-4.463,9.961-9.961c0-5.499-4.463-9.961-9.961-9.961s-9.961,4.463-9.961,9.961
	C214.163,160.892,218.626,165.354,224.125,165.354z"/>
<path d="M244.047,264.965h9.961v29.883c0,5.501,4.461,9.961,9.961,9.961s9.961-4.461,9.961-9.961v-29.883h9.961
	c5.501,0,9.961-4.461,9.961-9.961c0-5.501-4.461-9.961-9.961-9.961h-9.961v-9.961c0-5.501-4.461-9.961-9.961-9.961
	s-9.961,4.461-9.961,9.961v9.961h-9.961c-5.501,0-9.961,4.461-9.961,9.961C234.086,260.504,238.546,264.965,244.047,264.965z"/>
<path d="M406.412,344.654c-16.478,0-29.883,13.406-29.883,29.883v39.844c0,5.501,4.461,9.961,9.961,9.961h39.844
	c5.501,0,9.961-4.461,9.961-9.961v-39.844C436.296,358.024,422.923,344.654,406.412,344.654z M416.374,404.42h-19.922v-29.883
	c0-5.493,4.469-9.961,9.961-9.961c5.5,0,9.961,4.462,9.961,9.961V404.42z"/>
<path d="M121.525,344.654c-16.478,0-29.883,13.406-29.883,29.883v39.844c0,5.501,4.461,9.961,9.961,9.961h39.844
	c5.501,0,9.961-4.461,9.961-9.961v-39.844C151.409,358.024,138.036,344.654,121.525,344.654z M131.486,404.42h-19.922v-29.883
	c0-5.493,4.469-9.961,9.961-9.961c5.5,0,9.961,4.462,9.961,9.961V404.42z"/>
<path d="M501.043,512c5.5,0,9.961-4.461,9.961-9.961v-22.91c0-16.478-13.406-29.883-29.883-29.883h-4.981V342.943
	c6.916-2.445,12.808-7.395,16.397-14.088c7.759-14.53,2.256-32.671-12.351-40.484l-126.568-66.146v-22.862l17.005-17.005
	c3.89-3.89,3.89-10.197,0-14.088l-18.915-18.914L272.705,5.174C270.957,1.983,267.607,0,263.969,0s-6.988,1.983-8.736,5.174
	L176.23,149.357l-18.915,18.914c-3.89,3.89-3.89,10.197,0,14.088l17.005,17.006v27.147l-125.93,61.53
	c-14.732,7.365-20.727,25.352-13.355,40.11c3.545,7.07,9.58,12.274,16.764,14.797v106.297H30.879
	c-16.478,0-29.883,13.406-29.883,29.883v22.91c0,5.501,4.461,9.961,9.961,9.961H501.043z M71.72,342.948
	c1.139-0.404,2.259-0.875,3.357-1.421l99.242-48.32v154.046H71.72V342.948z M254.008,394.459h-19.922v-15.221
	c0-13.015,8.207-24.04,19.922-28.17V394.459z M273.93,351.07c11.981,4.224,19.922,15.551,19.922,28.169v15.221H273.93V351.07z
	 M353.619,289.859l98.527,51.298c1.311,0.696,2.676,1.28,4.072,1.773v104.323H353.619V289.859z M333.697,205.198v23.189
	c0,0.011,0,0.023,0,0.034v45.174c0,0.007,0,0.013,0,0.02v1.311v172.327h-19.922v-68.014c0-27.568-22.386-49.805-49.805-49.805
	c-26.942,0-49.805,21.641-49.805,49.805v68.014h-19.922V274.926v-69.728H333.697z M234.086,414.381h19.922v34.864h-19.922V414.381z
	 M273.93,414.381h19.922v34.864H273.93V414.381z M470.874,305.983c4.843,2.591,6.678,8.642,4.098,13.473
	c-2.571,4.794-8.573,6.724-13.497,4.096l-107.856-56.155v-22.693L470.874,305.983z M193.016,160.18l70.953-129.489l62.872,114.741
	h-62.872c-5.501,0-9.961,4.461-9.961,9.961c0,5.501,4.461,9.961,9.961,9.961h75.562l9.961,9.961l-9.961,9.961H188.407l-9.961-9.961
	l12.879-12.879C191.992,161.768,192.561,161.009,193.016,160.18z M57.215,305.901l117.104-57.217v22.364L66.313,323.634
	l-0.096,0.048c-4.875,2.437-10.881,0.511-13.368-4.448C50.392,314.314,52.388,308.316,57.215,305.901z M20.918,479.128
	c0-5.493,4.469-9.961,9.961-9.961h450.241c5.493,0,9.961,4.469,9.961,9.961v12.949H20.918V479.128z"/>
<g>
</g>
<g>
</g>
<g>
</g>
<g>
</g>
<g>
</g>
<g>
</g>
<g>
</g>
<g>
</g>
<g>
</g>
<g>
</g>
<g>
</g>
<g>
</g>
<g>
</g>
<g>
</g>
<g>
</g>
</svg>
